<mxfile host="65bd71144e">
    <diagram id="f2QEOJHgyvqU46BvK_PE" name="FlashDB Bench测试原理">
        <mxGraphModel dx="698" dy="563" grid="1" gridSize="10" guides="1" tooltips="1" connect="1" arrows="1" fold="1" page="1" pageScale="1" pageWidth="1200" pageHeight="800" math="0" shadow="0">
            <root>
                <mxCell id="0"/>
                <mxCell id="1" parent="0"/>
                <mxCell id="2" value="FlashDB Bench 性能测试原理" style="rounded=1;whiteSpace=wrap;html=1;fontSize=16;fontStyle=1;fillColor=#dae8fc;strokeColor=#6c8ebf;shadow=1" parent="1" vertex="1">
                    <mxGeometry x="450" y="30" width="300" height="40" as="geometry"/>
                </mxCell>
                <mxCell id="3" value="KVDB Bench 测试" style="rounded=1;whiteSpace=wrap;html=1;fontSize=14;fontStyle=1;fillColor=#f8cecc;strokeColor=#b85450" parent="1" vertex="1">
                    <mxGeometry x="50" y="100" width="500" height="30" as="geometry"/>
                </mxCell>
                <mxCell id="4" value="步骤1：插入性能测试" style="rounded=1;whiteSpace=wrap;html=1;fontSize=12;fontStyle=1;fillColor=#fff2cc;strokeColor=#d6b656" parent="1" vertex="1">
                    <mxGeometry x="70" y="150" width="140" height="30" as="geometry"/>
                </mxCell>
                <mxCell id="5" value="开始计时" style="ellipse;whiteSpace=wrap;html=1;fillColor=#e1d5e7;strokeColor=#9673a6" parent="1" vertex="1">
                    <mxGeometry x="90" y="200" width="80" height="40" as="geometry"/>
                </mxCell>
                <mxCell id="6" value="循环插入48个KV对&#xa;key:0~47&#xa;value:value:0~47" style="rounded=0;whiteSpace=wrap;html=1;fillColor=#d5e8d4;strokeColor=#82b366" parent="1" vertex="1">
                    <mxGeometry x="50" y="260" width="160" height="60" as="geometry"/>
                </mxCell>
                <mxCell id="7" value="结束计时&#xa;计算平均时间" style="ellipse;whiteSpace=wrap;html=1;fillColor=#e1d5e7;strokeColor=#9673a6" parent="1" vertex="1">
                    <mxGeometry x="90" y="340" width="80" height="40" as="geometry"/>
                </mxCell>
                <mxCell id="8" value="步骤2：查询性能测试" style="rounded=1;whiteSpace=wrap;html=1;fontSize=12;fontStyle=1;fillColor=#fff2cc;strokeColor=#d6b656" parent="1" vertex="1">
                    <mxGeometry x="230" y="150" width="140" height="30" as="geometry"/>
                </mxCell>
                <mxCell id="9" value="开始计时" style="ellipse;whiteSpace=wrap;html=1;fillColor=#e1d5e7;strokeColor=#9673a6" parent="1" vertex="1">
                    <mxGeometry x="250" y="200" width="80" height="40" as="geometry"/>
                </mxCell>
                <mxCell id="10" value="循环查询48个KV对&#xa;验证查询结果正确性" style="rounded=0;whiteSpace=wrap;html=1;fillColor=#d5e8d4;strokeColor=#82b366" parent="1" vertex="1">
                    <mxGeometry x="210" y="260" width="160" height="60" as="geometry"/>
                </mxCell>
                <mxCell id="11" value="结束计时&#xa;计算平均时间" style="ellipse;whiteSpace=wrap;html=1;fillColor=#e1d5e7;strokeColor=#9673a6" parent="1" vertex="1">
                    <mxGeometry x="250" y="340" width="80" height="40" as="geometry"/>
                </mxCell>
                <mxCell id="12" value="步骤3：删除性能测试" style="rounded=1;whiteSpace=wrap;html=1;fontSize=12;fontStyle=1;fillColor=#fff2cc;strokeColor=#d6b656" parent="1" vertex="1">
                    <mxGeometry x="390" y="150" width="140" height="30" as="geometry"/>
                </mxCell>
                <mxCell id="13" value="开始计时" style="ellipse;whiteSpace=wrap;html=1;fillColor=#e1d5e7;strokeColor=#9673a6" parent="1" vertex="1">
                    <mxGeometry x="410" y="200" width="80" height="40" as="geometry"/>
                </mxCell>
                <mxCell id="14" value="循环删除48个KV对" style="rounded=0;whiteSpace=wrap;html=1;fillColor=#d5e8d4;strokeColor=#82b366" parent="1" vertex="1">
                    <mxGeometry x="370" y="260" width="160" height="60" as="geometry"/>
                </mxCell>
                <mxCell id="15" value="结束计时&#xa;计算平均时间" style="ellipse;whiteSpace=wrap;html=1;fillColor=#e1d5e7;strokeColor=#9673a6" parent="1" vertex="1">
                    <mxGeometry x="410" y="340" width="80" height="40" as="geometry"/>
                </mxCell>
                <mxCell id="16" value="TSDB Bench 测试" style="rounded=1;whiteSpace=wrap;html=1;fontSize=14;fontStyle=1;fillColor=#f8cecc;strokeColor=#b85450" parent="1" vertex="1">
                    <mxGeometry x="650" y="100" width="500" height="30" as="geometry"/>
                </mxCell>
                <mxCell id="17" value="步骤1：时序数据插入测试" style="rounded=1;whiteSpace=wrap;html=1;fontSize=12;fontStyle=1;fillColor=#fff2cc;strokeColor=#d6b656" parent="1" vertex="1">
                    <mxGeometry x="670" y="150" width="180" height="30" as="geometry"/>
                </mxCell>
                <mxCell id="18" value="清空TSDB" style="ellipse;whiteSpace=wrap;html=1;fillColor=#e1d5e7;strokeColor=#9673a6" parent="1" vertex="1">
                    <mxGeometry x="720" y="200" width="80" height="40" as="geometry"/>
                </mxCell>
                <mxCell id="19" value="5秒内循环插入&#xa;时序数据&#xa;记录插入数量" style="rounded=0;whiteSpace=wrap;html=1;fillColor=#d5e8d4;strokeColor=#82b366" parent="1" vertex="1">
                    <mxGeometry x="680" y="260" width="160" height="60" as="geometry"/>
                </mxCell>
                <mxCell id="20" value="计算吞吐量&#xa;tsl/S 和 ms/per" style="ellipse;whiteSpace=wrap;html=1;fillColor=#e1d5e7;strokeColor=#9673a6" parent="1" vertex="1">
                    <mxGeometry x="690" y="340" width="140" height="40" as="geometry"/>
                </mxCell>
                <mxCell id="21" value="步骤2：时序数据查询测试" style="rounded=1;whiteSpace=wrap;html=1;fontSize=12;fontStyle=1;fillColor=#fff2cc;strokeColor=#d6b656" parent="1" vertex="1">
                    <mxGeometry x="870" y="150" width="180" height="30" as="geometry"/>
                </mxCell>
                <mxCell id="22" value="循环查询每个&#xa;时间点的数据" style="rounded=0;whiteSpace=wrap;html=1;fillColor=#d5e8d4;strokeColor=#82b366" parent="1" vertex="1">
                    <mxGeometry x="880" y="200" width="160" height="40" as="geometry"/>
                </mxCell>
                <mxCell id="23" value="记录最小、最大&#xa;和平均查询时间" style="ellipse;whiteSpace=wrap;html=1;fillColor=#e1d5e7;strokeColor=#9673a6" parent="1" vertex="1">
                    <mxGeometry x="880" y="270" width="160" height="40" as="geometry"/>
                </mxCell>
                <mxCell id="24" value="清理测试数据" style="ellipse;whiteSpace=wrap;html=1;fillColor=#e1d5e7;strokeColor=#9673a6" parent="1" vertex="1">
                    <mxGeometry x="920" y="340" width="80" height="40" as="geometry"/>
                </mxCell>
                <mxCell id="25" value="测试结果输出" style="rounded=1;whiteSpace=wrap;html=1;fontSize=14;fontStyle=1;fillColor=#f0f0f0;strokeColor=#666666" parent="1" vertex="1">
                    <mxGeometry x="50" y="430" width="1100" height="30" as="geometry"/>
                </mxCell>
                <mxCell id="26" value="KVDB Bench 输出示例&#xa;48 KVs has been added, total X tick, avg Y tick/per&#xa;48 KVs has been queried, total X tick, avg Y tick/per&#xa;48 KVs has been deleted, total X tick, avg Y tick/per" style="rounded=0;whiteSpace=wrap;html=1;fontSize=10;fillColor=#f5f5f5;strokeColor=#666666;align=left" parent="1" vertex="1">
                    <mxGeometry x="70" y="480" width="460" height="80" as="geometry"/>
                </mxCell>
                <mxCell id="27" value="TSDB Bench 输出示例&#xa;Append 1250 TSL in 5 seconds, average: 250.00 tsl/S, 4.00 ms/per&#xa;Query total spent 2218 (tick) for 1251 TSL, min 1, max 2, average: 1.77 tick/per" style="rounded=0;whiteSpace=wrap;html=1;fontSize=10;fillColor=#f5f5f5;strokeColor=#666666;align=left" parent="1" vertex="1">
                    <mxGeometry x="570" y="480" width="560" height="80" as="geometry"/>
                </mxCell>
                <mxCell id="28" value="关键性能指标" style="rounded=1;whiteSpace=wrap;html=1;fontSize=14;fontStyle=1;fillColor=#e6ffcc;strokeColor=#7ea863" parent="1" vertex="1">
                    <mxGeometry x="50" y="590" width="1100" height="30" as="geometry"/>
                </mxCell>
                <mxCell id="29" value="• 吞吐量：每秒处理的操作数量 (ops/S)&#xa;• 延迟：单次操作平均耗时 (ms/per)&#xa;• 最小/最大延迟：查询操作的时间范围&#xa;• 总耗时：完成所有测试操作的总时间" style="rounded=0;whiteSpace=wrap;html=1;fontSize=11;fillColor=#f0f8ff;strokeColor=#4a90e2;align=left" parent="1" vertex="1">
                    <mxGeometry x="70" y="640" width="1060" height="80" as="geometry"/>
                </mxCell>
                <mxCell id="30" value="" style="endArrow=classic;html=1;rounded=0" parent="1" source="5" target="6" edge="1">
                    <mxGeometry width="50" height="50" relative="1" as="geometry">
                        <mxPoint x="130" y="250" as="sourcePoint"/>
                        <mxPoint x="180" y="200" as="targetPoint"/>
                    </mxGeometry>
                </mxCell>
                <mxCell id="31" value="" style="endArrow=classic;html=1;rounded=0" parent="1" source="6" target="7" edge="1">
                    <mxGeometry width="50" height="50" relative="1" as="geometry">
                        <mxPoint x="130" y="330" as="sourcePoint"/>
                        <mxPoint x="180" y="280" as="targetPoint"/>
                    </mxGeometry>
                </mxCell>
                <mxCell id="32" value="" style="endArrow=classic;html=1;rounded=0" parent="1" source="9" target="10" edge="1">
                    <mxGeometry width="50" height="50" relative="1" as="geometry">
                        <mxPoint x="290" y="250" as="sourcePoint"/>
                        <mxPoint x="340" y="200" as="targetPoint"/>
                    </mxGeometry>
                </mxCell>
                <mxCell id="33" value="" style="endArrow=classic;html=1;rounded=0" parent="1" source="10" target="11" edge="1">
                    <mxGeometry width="50" height="50" relative="1" as="geometry">
                        <mxPoint x="290" y="330" as="sourcePoint"/>
                        <mxPoint x="340" y="280" as="targetPoint"/>
                    </mxGeometry>
                </mxCell>
                <mxCell id="34" value="" style="endArrow=classic;html=1;rounded=0" parent="1" source="13" target="14" edge="1">
                    <mxGeometry width="50" height="50" relative="1" as="geometry">
                        <mxPoint x="450" y="250" as="sourcePoint"/>
                        <mxPoint x="500" y="200" as="targetPoint"/>
                    </mxGeometry>
                </mxCell>
                <mxCell id="35" value="" style="endArrow=classic;html=1;rounded=0" parent="1" source="14" target="15" edge="1">
                    <mxGeometry width="50" height="50" relative="1" as="geometry">
                        <mxPoint x="450" y="330" as="sourcePoint"/>
                        <mxPoint x="500" y="280" as="targetPoint"/>
                    </mxGeometry>
                </mxCell>
                <mxCell id="36" value="" style="endArrow=classic;html=1;rounded=0" parent="1" source="18" target="19" edge="1">
                    <mxGeometry width="50" height="50" relative="1" as="geometry">
                        <mxPoint x="760" y="250" as="sourcePoint"/>
                        <mxPoint x="810" y="200" as="targetPoint"/>
                    </mxGeometry>
                </mxCell>
                <mxCell id="37" value="" style="endArrow=classic;html=1;rounded=0" parent="1" source="19" target="20" edge="1">
                    <mxGeometry width="50" height="50" relative="1" as="geometry">
                        <mxPoint x="760" y="330" as="sourcePoint"/>
                        <mxPoint x="810" y="280" as="targetPoint"/>
                    </mxGeometry>
                </mxCell>
                <mxCell id="38" value="" style="endArrow=classic;html=1;rounded=0" parent="1" source="22" target="23" edge="1">
                    <mxGeometry width="50" height="50" relative="1" as="geometry">
                        <mxPoint x="960" y="250" as="sourcePoint"/>
                        <mxPoint x="1010" y="200" as="targetPoint"/>
                    </mxGeometry>
                </mxCell>
                <mxCell id="39" value="" style="endArrow=classic;html=1;rounded=0" parent="1" source="23" target="24" edge="1">
                    <mxGeometry width="50" height="50" relative="1" as="geometry">
                        <mxPoint x="960" y="310" as="sourcePoint"/>
                        <mxPoint x="1010" y="260" as="targetPoint"/>
                    </mxGeometry>
                </mxCell>
            </root>
        </mxGraphModel>
    </diagram>
</mxfile>